<?xml version="1.0" encoding="utf-8"?>
<!-- Generator: Adobe Illustrator 22.0.0, SVG Export Plug-In . SVG Version: 6.00 Build 0)  -->
<svg version="1.1" id="Layer_1" xmlns="http://www.w3.org/2000/svg" xmlns:xlink="http://www.w3.org/1999/xlink" x="0px" y="0px"
	 viewBox="0 0 94.2 12.9" style="enable-background:new 0 0 94.2 12.9;" xml:space="preserve">
<style type="text/css">
	.st0{fill:#F7F7F7;}
	.st1{opacity:0.1;fill:#848383;}
</style>
<path class="st0" d="M94.2,21.5c-23.5,0-70.6,0-94.2,0V10C23.5,10,23.5,0,47.1,0c23.5,0,23.6,10,47.1,10V21.5z"/>
<path class="st1" d="M94.2,12c-12,0-18.1-2.6-23.9-5.1C64.3,4.4,58.6,2,47.1,2C35.5,2,29.9,4.4,23.9,6.9C18,9.4,12,12,0,12v-2
	c11.6,0,17.2-2.4,23.1-4.9C29,2.6,35.1,0,47.1,0S65.1,2.6,71,5.1C77,7.6,82.6,10,94.2,10V12z"/>
</svg>
