<?xml version="1.0" encoding="utf-8"?>
<!-- Generator: Adobe Illustrator 22.0.0, SVG Export Plug-In . SVG Version: 6.00 Build 0)  -->
<svg version="1.1" id="Layer_1" xmlns="http://www.w3.org/2000/svg" xmlns:xlink="http://www.w3.org/1999/xlink" x="0px" y="0px"
	 viewBox="0 0 94.2 12.9" style="enable-background:new 0 0 94.2 12.9;" xml:space="preserve">
<style type="text/css">
	.st0{fill:#F7F7F7;}
	.st1{opacity:0.1;fill:#848383;}
</style>
<path class="st0" d="M94.2,16C70.6,16,23.5,16,0,16V7.4C23.5,7.4,23.5,0,47.1,0c23.5,0,23.6,7.4,47.1,7.4V16z"/>
<path class="st1" d="M94.2,7.4c-11.5,0-17.1-1.8-23-3.6C65.2,1.9,59.1,0,47.1,0C35,0,28.9,1.9,23,3.8C17.1,5.7,11.5,7.4,0,7.4h-0.4
	v2.2H0c12,0,18.1-1.9,24-3.8C30,4,35.6,2.2,47.1,2.2c11.5,0,17.1,1.8,23,3.6c5.9,1.9,12,3.8,24.1,3.8h0.4V7.4H94.2z"/>
</svg>
